<?xml version='1.0' encoding='utf-8'?>
<svg xmlns="http://www.w3.org/2000/svg" width="1040" height="460"><rect x="0" y="0" width="1040" height="460" fill="#ffffff" /><text x="520" y="28" fill="#111" font-size="19" font-weight="bold" text-anchor="middle">一物一码 · 每日活动参与人数（2026-08-01 ~ 09-30）</text><text x="520" y="50" fill="#777" font-size="12" text-anchor="middle">纵轴为对数刻度 · 蓝=8月  橙=9月 · 关键节点已标注</text><line x1="70" y1="390.0" x2="1010" y2="390.0" stroke="#e8e8e8" /><text x="62" y="394.0" fill="#999" font-size="11" text-anchor="end">1</text><line x1="70" y1="307.8" x2="1010" y2="307.8" stroke="#e8e8e8" /><text x="62" y="311.8" fill="#999" font-size="11" text-anchor="end">10</text><line x1="70" y1="225.6" x2="1010" y2="225.6" stroke="#e8e8e8" /><text x="62" y="229.6" fill="#999" font-size="11" text-anchor="end">100</text><line x1="70" y1="143.4" x2="1010" y2="143.4" stroke="#e8e8e8" /><text x="62" y="147.4" fill="#999" font-size="11" text-anchor="end">1,000</text><line x1="70" y1="61.2" x2="1010" y2="61.2" stroke="#e8e8e8" /><text x="62" y="65.2" fill="#999" font-size="11" text-anchor="end">10,000</text><text x="70.0" y="408" fill="#888" font-size="10" text-anchor="middle">08-01</text><text x="148.3" y="408" fill="#888" font-size="10" text-anchor="middle">08-06</text><text x="226.7" y="408" fill="#888" font-size="10" text-anchor="middle">08-11</text><text x="305.0" y="408" fill="#888" font-size="10" text-anchor="middle">08-16</text><text x="383.3" y="408" fill="#888" font-size="10" text-anchor="middle">08-21</text><text x="461.7" y="408" fill="#888" font-size="10" text-anchor="middle">08-26</text><text x="540.0" y="408" fill="#888" font-size="10" text-anchor="middle">08-31</text><text x="618.3" y="408" fill="#888" font-size="10" text-anchor="middle">09-05</text><text x="696.7" y="408" fill="#888" font-size="10" text-anchor="middle">09-10</text><text x="775.0" y="408" fill="#888" font-size="10" text-anchor="middle">09-15</text><text x="853.3" y="408" fill="#888" font-size="10" text-anchor="middle">09-20</text><text x="931.7" y="408" fill="#888" font-size="10" text-anchor="middle">09-25</text><text x="1010.0" y="408" fill="#888" font-size="10" text-anchor="middle">09-30</text><polyline points="70.0,390.0 85.7,390.0 101.3,291.0 117.0,320.5 132.7,326.0 148.3,276.5 164.0,256.6 179.7,245.0 195.3,220.0 211.0,216.8 226.7,201.9 242.3,190.3 258.0,178.6 273.7,172.2 289.3,162.7 305.0,152.5 320.7,148.5 336.3,145.0 352.0,139.2 367.7,136.9 383.3,128.0 399.0,122.9 414.7,121.7 430.3,120.0 446.0,116.1 461.7,115.7 477.3,111.5 493.0,107.6 508.7,104.1 524.3,102.8 540.0,102.4" fill="none" stroke="#2563eb" stroke-width="2.4" /><polyline points="540.0,102.4 555.7,100.9 571.3,98.0 587.0,95.4 602.7,92.1 618.3,88.0 634.0,89.8 649.7,89.6 665.3,88.2 681.0,83.4 696.7,83.4 712.3,81.6 728.0,78.6 743.7,81.3 759.3,81.5 775.0,81.0 790.7,78.3 806.3,79.2 822.0,76.8 837.7,77.4 853.3,77.3 869.0,76.2 884.7,73.3 900.3,71.5 916.0,71.6 931.7,73.8 947.3,74.1 963.0,75.1 978.7,75.0 994.3,72.8 1010.0,70.0" fill="none" stroke="#ea580c" stroke-width="2.4" /><circle cx="117.0" cy="320.5" r="4" fill="#111" /><text x="117.0" y="292.5" fill="#111" font-size="11" font-weight="bold" text-anchor="middle">8-04 D-Day 7人</text><circle cx="195.3" cy="220.0" r="4" fill="#111" /><text x="195.3" y="190.0" fill="#111" font-size="11" font-weight="bold" text-anchor="middle">8-09 出库 117人</text><circle cx="367.7" cy="136.9" r="4" fill="#111" /><text x="367.7" y="102.9" fill="#111" font-size="11" font-weight="bold" text-anchor="middle">8-20 三口味 1,198人</text><circle cx="540.0" cy="102.4" r="4" fill="#111" /><text x="540.0" y="128.4" fill="#111" font-size="11" font-weight="bold" text-anchor="middle">8-31 3,150人</text><circle cx="1010.0" cy="70.0" r="4" fill="#111" /><text x="1010.0" y="48.0" fill="#111" font-size="11" font-weight="bold" text-anchor="middle">9-30 7,810人</text></svg>